<svg xmlns="http://www.w3.org/2000/svg" viewBox="0 0 800 500" role="img" aria-labelledby="title desc">
  <title id="title">Accra scenic illustration</title>
  <desc id="desc">A stylized Accra shoreline with palms, colorful architecture, and a bright Atlantic sunset.</desc>
  <defs>
    <linearGradient id="sky" x1="0" y1="0" x2="0" y2="1">
      <stop offset="0%" stop-color="#ffe38f"/>
      <stop offset="58%" stop-color="#ff9f6a"/>
      <stop offset="100%" stop-color="#2b7cb4"/>
    </linearGradient>
  </defs>
  <rect width="800" height="500" fill="url(#sky)"/>
  <circle cx="590" cy="105" r="52" fill="#fff5c2" opacity="0.88"/>
  <rect y="332" width="800" height="168" fill="#1f7ab0"/>
  <path d="M0 346 C115 330 220 358 310 342 S575 326 800 350 L800 500 L0 500 Z" fill="#2890c1"/>
  <rect x="90" y="270" width="620" height="78" fill="#d8b27b"/>
  <g>
    <rect x="160" y="205" width="95" height="92" fill="#ffcf7a"/>
    <rect x="274" y="188" width="90" height="109" fill="#f48b62"/>
    <rect x="382" y="214" width="110" height="83" fill="#f4e1b8"/>
    <rect x="510" y="196" width="88" height="101" fill="#8fc1c1"/>
  </g>
  <g fill="#23526f">
    <rect x="186" y="228" width="18" height="20"/>
    <rect x="216" y="228" width="18" height="20"/>
    <rect x="302" y="212" width="16" height="18"/>
    <rect x="332" y="212" width="16" height="18"/>
    <rect x="416" y="234" width="18" height="18"/>
    <rect x="446" y="234" width="18" height="18"/>
    <rect x="536" y="220" width="16" height="18"/>
    <rect x="566" y="220" width="16" height="18"/>
  </g>
  <g>
    <path d="M88 300 L122 225 L156 300 Z" fill="#2b6a43"/>
    <rect x="118" y="300" width="8" height="52" fill="#6a4a2b"/>
    <path d="M640 302 L676 218 L712 302 Z" fill="#2d6b45"/>
    <rect x="672" y="302" width="8" height="52" fill="#6a4a2b"/>
    <path d="M680 298 C675 268 690 240 720 224" stroke="#6a4a2b" stroke-width="7" fill="none"/>
    <path d="M122 296 C112 265 122 238 148 220" stroke="#6a4a2b" stroke-width="7" fill="none"/>
  </g>
  <path d="M0 404 C140 386 242 418 366 404 S598 388 800 408" stroke="#bfe9ff" stroke-width="4" fill="none" opacity="0.45"/>
</svg>