<svg xmlns="http://www.w3.org/2000/svg" viewBox="0 0 800 500" role="img" aria-labelledby="title desc">
  <title id="title">Amsterdam scenic illustration</title>
  <desc id="desc">A stylized Amsterdam canal scene with narrow houses, bridges, and a reflected sky.</desc>
  <defs>
    <linearGradient id="sky" x1="0" y1="0" x2="0" y2="1">
      <stop offset="0%" stop-color="#c9ebff"/>
      <stop offset="62%" stop-color="#f5d5b2"/>
      <stop offset="100%" stop-color="#7aa3c8"/>
    </linearGradient>
  </defs>
  <rect width="800" height="500" fill="url(#sky)"/>
  <circle cx="635" cy="92" r="44" fill="#fff8d2" opacity="0.9"/>
  <rect y="340" width="800" height="160" fill="#4d7399"/>
  <path d="M0 355 C110 336 220 362 310 348 S565 334 800 352 L800 500 L0 500 Z" fill="#5c84aa"/>
  <g>
    <rect x="120" y="170" width="90" height="170" fill="#734558"/>
    <rect x="225" y="150" width="88" height="190" fill="#b55f4b"/>
    <rect x="328" y="185" width="78" height="155" fill="#465b84"/>
    <rect x="420" y="160" width="102" height="180" fill="#d08b57"/>
    <rect x="536" y="176" width="88" height="164" fill="#6d7fb1"/>
  </g>
  <g fill="#f3e9d9">
    <path d="M120 170 L165 132 L210 170 Z"/>
    <path d="M225 150 L269 110 L313 150 Z"/>
    <path d="M328 185 L367 150 L406 185 Z"/>
    <path d="M420 160 L471 118 L522 160 Z"/>
    <path d="M536 176 L580 140 L624 176 Z"/>
  </g>
  <g fill="#dbeeff">
    <rect x="140" y="205" width="16" height="20"/>
    <rect x="174" y="205" width="16" height="20"/>
    <rect x="140" y="240" width="16" height="20"/>
    <rect x="174" y="240" width="16" height="20"/>
    <rect x="244" y="188" width="16" height="20"/>
    <rect x="278" y="188" width="16" height="20"/>
    <rect x="244" y="224" width="16" height="20"/>
    <rect x="278" y="224" width="16" height="20"/>
    <rect x="344" y="214" width="14" height="18"/>
    <rect x="374" y="214" width="14" height="18"/>
    <rect x="438" y="194" width="18" height="22"/>
    <rect x="472" y="194" width="18" height="22"/>
    <rect x="554" y="204" width="16" height="20"/>
    <rect x="588" y="204" width="16" height="20"/>
  </g>
  <path d="M80 340 Q160 286 240 340 T400 340 T560 340 T720 340" stroke="#f6efe5" stroke-width="8" fill="none" opacity="0.95"/>
</svg>