<svg xmlns="http://www.w3.org/2000/svg" viewBox="0 0 800 500" role="img" aria-labelledby="title desc">
  <title id="title">Cape Town scenic illustration</title>
  <desc id="desc">A stylized Cape Town scene with Table Mountain, coastline, and a colorful waterfront.</desc>
  <defs>
    <linearGradient id="sky" x1="0" y1="0" x2="0" y2="1">
      <stop offset="0%" stop-color="#b9f0ff"/>
      <stop offset="56%" stop-color="#ffd0a1"/>
      <stop offset="100%" stop-color="#4f86b4"/>
    </linearGradient>
  </defs>
  <rect width="800" height="500" fill="url(#sky)"/>
  <circle cx="612" cy="92" r="43" fill="#fff3c2" opacity="0.9"/>
  <path d="M0 300 L120 265 L240 225 L340 220 L470 176 L560 186 L700 236 L800 252 L800 500 L0 500 Z" fill="#5f8198"/>
  <path d="M0 324 L100 292 L236 252 L350 248 L472 198 L584 212 L724 254 L800 270 L800 500 L0 500 Z" fill="#3e6074"/>
  <rect y="350" width="800" height="150" fill="#3f7aa5"/>
  <path d="M212 235 L510 235 L560 198 L605 200 L605 258 L145 258 Z" fill="#6b8c9e"/>
  <g>
    <rect x="150" y="278" width="90" height="58" fill="#ef8f5a"/>
    <rect x="252" y="286" width="76" height="50" fill="#f4d38a"/>
    <rect x="340" y="274" width="88" height="62" fill="#86c8c2"/>
    <rect x="442" y="282" width="92" height="54" fill="#f4ede0"/>
    <rect x="548" y="288" width="74" height="48" fill="#d46d68"/>
  </g>
  <g fill="#234762">
    <rect x="172" y="296" width="14" height="16"/>
    <rect x="198" y="296" width="14" height="16"/>
    <rect x="274" y="300" width="14" height="16"/>
    <rect x="366" y="292" width="16" height="18"/>
    <rect x="396" y="292" width="16" height="18"/>
    <rect x="470" y="300" width="16" height="18"/>
    <rect x="578" y="302" width="14" height="16"/>
  </g>
  <path d="M0 398 C136 382 246 416 384 398 S614 384 800 405" stroke="#d3efff" stroke-width="4" fill="none" opacity="0.5"/>
</svg>