<svg xmlns="http://www.w3.org/2000/svg" viewBox="0 0 800 500" role="img" aria-labelledby="title desc">
  <title id="title">Paris scenic illustration</title>
  <desc id="desc">A stylized Paris skyline featuring the Eiffel Tower, rooftops, and a soft evening sky.</desc>
  <defs>
    <linearGradient id="sky" x1="0" y1="0" x2="0" y2="1">
      <stop offset="0%" stop-color="#b9d7ff"/>
      <stop offset="58%" stop-color="#f3c1b3"/>
      <stop offset="100%" stop-color="#5b6f94"/>
    </linearGradient>
  </defs>
  <rect width="800" height="500" fill="url(#sky)"/>
  <circle cx="145" cy="95" r="42" fill="#fff4c7" opacity="0.85"/>
  <rect y="360" width="800" height="140" fill="#465b7a"/>
  <path d="M0 350 C120 332 220 358 320 346 S570 330 800 350 L800 500 L0 500 Z" fill="#536887"/>
  <g fill="#2e3f59">
    <rect x="80" y="250" width="100" height="110"/>
    <rect x="190" y="270" width="86" height="90"/>
    <rect x="560" y="265" width="110" height="95"/>
    <rect x="680" y="280" width="74" height="80"/>
  </g>
  <g fill="#d8dbe7">
    <path d="M118 225 L142 198 L166 225 Z"/>
    <path d="M210 250 L233 224 L256 250 Z"/>
    <path d="M590 242 L615 213 L640 242 Z"/>
    <path d="M694 264 L717 236 L740 264 Z"/>
  </g>
  <g stroke="#243247" stroke-width="8" stroke-linecap="round" stroke-linejoin="round" fill="none">
    <path d="M400 130 L345 355"/>
    <path d="M400 130 L455 355"/>
    <path d="M367 240 L433 240"/>
    <path d="M352 296 L448 296"/>
    <path d="M330 355 L470 355"/>
    <path d="M385 130 L400 82 L415 130"/>
  </g>
  <path d="M350 355 Q400 395 450 355" fill="#243247"/>
  <path d="M0 398 C160 380 255 410 390 392 S616 384 800 402" stroke="#a9c7df" stroke-width="4" fill="none" opacity="0.5"/>
</svg>