<svg xmlns="http://www.w3.org/2000/svg" viewBox="0 0 800 500" role="img" aria-labelledby="title desc">
  <title id="title">Singapore scenic illustration</title>
  <desc id="desc">A stylized Singapore skyline with supertrees, marina architecture, and tropical evening colors.</desc>
  <defs>
    <linearGradient id="sky" x1="0" y1="0" x2="0" y2="1">
      <stop offset="0%" stop-color="#1f365d"/>
      <stop offset="60%" stop-color="#ff8c69"/>
      <stop offset="100%" stop-color="#ffd59b"/>
    </linearGradient>
  </defs>
  <rect width="800" height="500" fill="url(#sky)"/>
  <circle cx="130" cy="90" r="42" fill="#ffeaa7" opacity="0.82"/>
  <rect y="350" width="800" height="150" fill="#274a65"/>
  <path d="M0 366 C150 348 260 378 390 360 S620 346 800 368 L800 500 L0 500 Z" fill="#2f5d7d"/>
  <g fill="#263d5b">
    <rect x="150" y="220" width="72" height="130"/>
    <rect x="234" y="195" width="64" height="155"/>
    <rect x="494" y="210" width="76" height="140"/>
    <rect x="584" y="185" width="78" height="165"/>
  </g>
  <g fill="#6ff2d4">
    <circle cx="360" cy="220" r="32"/>
    <circle cx="420" cy="195" r="28"/>
    <circle cx="458" cy="232" r="26"/>
  </g>
  <g stroke="#53cfae" stroke-width="8" stroke-linecap="round">
    <path d="M360 252 L340 350"/>
    <path d="M420 223 L408 350"/>
    <path d="M458 258 L468 350"/>
  </g>
  <path d="M290 292 C330 248 486 248 526 292 L526 350 L290 350 Z" fill="#f4f1ea" opacity="0.88"/>
  <path d="M316 272 C340 250 475 250 500 272" stroke="#fff8ef" stroke-width="12" stroke-linecap="round" fill="none"/>
  <g fill="#b7f3ff">
    <rect x="168" y="242" width="12" height="18"/>
    <rect x="192" y="242" width="12" height="18"/>
    <rect x="252" y="218" width="12" height="18"/>
    <rect x="252" y="248" width="12" height="18"/>
    <rect x="608" y="207" width="14" height="20"/>
    <rect x="636" y="207" width="14" height="20"/>
  </g>
</svg>