<svg xmlns="http://www.w3.org/2000/svg" viewBox="0 0 800 500" role="img" aria-labelledby="title desc">
  <title id="title">Tokyo scenic illustration</title>
  <desc id="desc">A stylized Tokyo skyline with Mount Fuji, neon towers, and a twilight sky.</desc>
  <defs>
    <linearGradient id="sky" x1="0" y1="0" x2="0" y2="1">
      <stop offset="0%" stop-color="#0f1738"/>
      <stop offset="52%" stop-color="#612e83"/>
      <stop offset="100%" stop-color="#ff8a5b"/>
    </linearGradient>
  </defs>
  <rect width="800" height="500" fill="url(#sky)"/>
  <circle cx="610" cy="95" r="46" fill="#ffe28a" opacity="0.82"/>
  <path d="M150 315 L300 170 L420 315 Z" fill="#dfebff" opacity="0.9"/>
  <path d="M208 260 L300 170 L375 260 Z" fill="#a9c1e5"/>
  <rect y="330" width="800" height="170" fill="#181f3d"/>
  <g fill="#263159">
    <rect x="70" y="245" width="92" height="135"/>
    <rect x="170" y="210" width="86" height="170"/>
    <rect x="470" y="200" width="88" height="180"/>
    <rect x="566" y="170" width="104" height="210"/>
    <rect x="684" y="240" width="62" height="140"/>
  </g>
  <rect x="350" y="170" width="54" height="210" fill="#2c3f69"/>
  <rect x="371" y="120" width="12" height="60" fill="#f6507a"/>
  <g fill="#58d7ff">
    <rect x="88" y="266" width="12" height="18"/>
    <rect x="112" y="266" width="12" height="18"/>
    <rect x="88" y="296" width="12" height="18"/>
    <rect x="112" y="296" width="12" height="18"/>
    <rect x="190" y="230" width="12" height="18"/>
    <rect x="214" y="230" width="12" height="18"/>
    <rect x="190" y="260" width="12" height="18"/>
    <rect x="214" y="260" width="12" height="18"/>
    <rect x="496" y="224" width="12" height="18"/>
    <rect x="520" y="224" width="12" height="18"/>
    <rect x="588" y="195" width="14" height="20"/>
    <rect x="616" y="195" width="14" height="20"/>
    <rect x="588" y="228" width="14" height="20"/>
    <rect x="616" y="228" width="14" height="20"/>
  </g>
  <path d="M0 410 C120 390 220 430 340 410 S570 392 800 418" stroke="#f6507a" stroke-width="4" fill="none" opacity="0.45"/>
</svg>