<svg xmlns="http://www.w3.org/2000/svg" viewBox="0 0 96 96" role="img" aria-labelledby="title desc">
  <title id="title">Travel Inspiration Hub logo</title>
  <desc id="desc">A stylized airplane flying over a globe.</desc>
  <defs>
    <linearGradient id="sky" x1="0%" y1="0%" x2="100%" y2="100%">
      <stop offset="0%" stop-color="#87ceeb" />
      <stop offset="100%" stop-color="#4da6ff" />
    </linearGradient>
    <linearGradient id="trail" x1="0%" y1="0%" x2="100%" y2="100%">
      <stop offset="0%" stop-color="#ffb08b" />
      <stop offset="100%" stop-color="#ff7f50" />
    </linearGradient>
  </defs>
  <circle cx="48" cy="48" r="36" fill="url(#sky)" />
  <path d="M19 48c8-7 17-10 29-10 12 0 20 3 29 10" fill="none" stroke="#ffffff" stroke-linecap="round" stroke-width="3" opacity="0.9" />
  <path d="M29 30c6 5 10 11 12 18" fill="none" stroke="#ffffff" stroke-linecap="round" stroke-width="2" opacity="0.8" />
  <path d="M67 27c-6 6-10 13-12 21" fill="none" stroke="#ffffff" stroke-linecap="round" stroke-width="2" opacity="0.8" />
  <path d="M23 59c8 4 16 6 25 6s17-2 25-6" fill="none" stroke="#ffffff" stroke-linecap="round" stroke-width="2.5" opacity="0.85" />
  <path d="M73 21 41 46l-10-1 8 8-8 12 11-7 16 4 15-31-10-2Z" fill="#ffffff" />
  <path d="M41 46 73 21l-15 31-16-4-3 4 1-6Z" fill="url(#trail)" opacity="0.9" />
</svg>